<?xml version="1.0" encoding="UTF-8" standalone="no"?>
<!DOCTYPE svg PUBLIC "-//W3C//DTD SVG 20010904//EN"
              "http://www.w3.org/TR/2001/REC-SVG-20010904/DTD/svg10.dtd">

<svg xmlns="http://www.w3.org/2000/svg"
     width="5.55556in" height="6.02222in"
     viewBox="0 0 500 542">
  <path id="Auswahl"
        fill="none" stroke="black" stroke-width="1"
        d="M 238.00,51.00
           C 238.00,51.00 238.00,25.00 238.00,25.00
             238.00,21.52 237.75,14.03 238.56,11.00
             239.95,5.74 245.28,0.97 251.00,1.98
             256.06,2.88 259.71,7.10 260.83,12.00
             260.83,12.00 260.83,51.00 260.83,51.00
             260.83,51.00 298.00,51.00 298.00,51.00
             298.00,51.00 298.00,21.00 298.00,21.00
             298.01,16.73 297.98,11.86 300.14,8.02
             304.21,0.74 315.35,-0.28 320.57,6.11
             323.32,9.47 322.99,12.95 323.00,17.00
             323.00,17.00 323.00,51.00 323.00,51.00
             323.00,51.00 361.00,51.00 361.00,51.00
             361.00,51.00 361.00,25.00 361.00,25.00
             361.00,21.50 360.75,14.05 361.56,11.00
             363.29,4.40 368.40,1.50 375.00,2.11
             380.74,2.64 384.58,6.40 385.83,12.00
             385.83,12.00 385.83,53.00 385.83,53.00
             415.02,55.44 444.56,84.98 447.00,114.00
             447.00,114.00 469.00,114.00 469.00,114.00
             469.00,114.00 483.00,114.00 483.00,114.00
             486.76,114.05 490.69,114.27 493.79,116.70
             499.40,121.11 499.40,131.89 493.79,136.30
             490.17,139.14 485.35,138.99 481.00,139.00
             481.00,139.00 458.00,139.00 458.00,139.00
             448.81,139.02 448.02,139.81 448.00,149.00
             448.00,149.00 448.00,176.00 448.00,176.00
             448.00,176.00 480.00,176.00 480.00,176.00
             484.37,176.05 490.41,176.52 493.87,179.43
             499.66,184.30 499.31,195.01 492.95,199.26
             490.15,201.13 487.20,200.98 484.00,201.00
             484.00,201.00 458.00,201.00 458.00,201.00
             448.81,201.02 448.02,201.81 448.00,211.00
             448.00,211.00 448.00,231.00 448.00,231.00
             448.04,233.14 447.96,235.77 449.60,237.40
             451.52,239.32 455.46,238.99 458.00,239.00
             458.00,239.00 475.00,239.00 475.00,239.00
             485.55,239.00 499.21,237.69 497.89,253.00
             497.02,263.15 489.22,263.99 481.00,264.00
             481.00,264.00 457.00,264.00 457.00,264.00
             454.65,264.02 451.39,263.81 449.60,265.60
             447.81,267.39 448.02,270.65 448.00,273.00
             448.00,273.00 448.00,301.00 448.00,301.00
             448.00,301.00 479.00,301.00 479.00,301.00
             482.88,301.02 488.54,301.28 491.98,303.16
             499.32,307.16 499.92,318.51 493.87,323.57
             490.58,326.32 486.99,325.99 483.00,326.00
             483.00,326.00 458.00,326.00 458.00,326.00
             455.81,326.00 452.16,325.79 450.31,327.02
             447.95,328.60 448.05,331.48 448.00,334.00
             448.00,334.00 448.00,356.00 448.00,356.00
             448.04,358.14 447.96,360.77 449.60,362.40
             451.52,364.32 455.46,363.99 458.00,364.00
             458.00,364.00 482.00,364.00 482.00,364.00
             485.87,364.02 489.44,363.98 492.82,366.23
             499.05,370.37 499.78,380.27 494.47,385.44
             491.17,388.66 487.33,388.94 483.00,389.00
             483.00,389.00 447.00,389.00 447.00,389.00
             444.85,414.57 422.69,438.86 399.00,447.00
             391.08,449.72 390.61,450.98 382.00,451.00
             382.00,451.00 365.00,451.00 365.00,451.00
             365.00,451.00 365.00,488.00 365.00,488.00
             365.00,488.00 365.00,524.00 365.00,524.00
             364.89,532.46 361.08,540.96 351.00,539.63
             344.38,538.76 338.54,531.54 334.00,527.00
             334.00,527.00 320.00,513.96 320.00,513.96
             320.00,513.96 275.00,470.01 275.00,470.01
             275.00,470.01 263.00,459.00 263.00,459.00
             260.55,456.58 257.22,452.78 254.00,451.60
             252.06,450.88 249.09,451.00 247.00,451.00
             247.00,451.00 121.00,451.00 121.00,451.00
             88.67,450.95 54.73,421.55 52.00,389.00
             52.00,389.00 16.00,389.00 16.00,389.00
             8.24,388.90 1.87,386.92 1.11,378.00
             0.54,371.36 3.26,366.18 10.00,364.53
             13.20,363.75 21.30,364.00 25.00,364.00
             25.00,364.00 51.00,364.00 51.00,364.00
             51.00,364.00 51.00,327.00 51.00,327.00
             51.00,327.00 19.00,327.00 19.00,327.00
             14.63,326.95 8.59,326.48 5.13,323.57
             -0.73,318.64 -0.41,307.99 6.04,303.74
             8.88,301.87 11.76,302.02 15.00,302.00
             15.00,302.00 41.00,302.00 41.00,302.00
             49.63,301.98 50.98,300.63 51.00,292.00
             51.00,292.00 51.00,264.00 51.00,264.00
             51.00,264.00 16.00,264.00 16.00,264.00
             8.24,263.90 1.87,261.92 1.11,253.00
             0.54,246.36 3.26,241.18 10.00,239.53
             13.20,238.75 21.30,239.00 25.00,239.00
             25.00,239.00 51.00,239.00 51.00,239.00
             51.00,239.00 51.00,202.00 51.00,202.00
             51.00,202.00 19.00,202.00 19.00,202.00
             14.63,201.95 8.59,201.48 5.13,198.57
             -0.73,193.64 -0.41,182.99 6.04,178.74
             8.88,176.87 11.76,177.02 15.00,177.00
             15.00,177.00 41.00,177.00 41.00,177.00
             43.54,176.99 47.48,177.32 49.40,175.40
             51.32,173.48 50.99,169.54 51.00,167.00
             51.00,167.00 51.00,139.00 51.00,139.00
             51.00,139.00 24.00,139.00 24.00,139.00
             20.52,139.00 13.03,139.25 10.00,138.44
             3.58,136.74 0.51,131.44 1.11,125.00
             1.64,119.26 5.40,115.42 11.00,114.17
             11.00,114.17 52.00,114.17 52.00,114.17
             54.44,84.93 83.94,55.44 113.00,53.00
             113.00,53.00 113.00,17.00 113.00,17.00
             113.09,9.48 115.41,2.91 124.00,2.11
             130.62,1.49 135.83,4.30 137.47,11.00
             137.47,11.00 138.00,51.00 138.00,51.00
             138.00,51.00 176.00,51.00 176.00,51.00
             176.00,51.00 176.00,17.00 176.00,17.00
             176.01,12.95 175.68,9.47 178.43,6.11
             183.65,-0.28 194.79,0.74 198.86,8.02
             200.86,11.57 200.98,16.04 201.00,20.00
             201.00,20.00 201.00,51.00 201.00,51.00
             201.00,51.00 238.00,51.00 238.00,51.00 Z
           M 340.00,498.00
           C 340.00,498.00 340.00,444.00 340.00,444.00
             340.08,438.05 341.03,433.31 346.04,429.43
             350.11,426.29 354.21,427.10 359.00,426.99
             359.00,426.99 377.00,426.00 377.00,426.00
             402.53,425.70 422.96,403.01 423.00,378.00
             423.00,378.00 423.00,125.00 423.00,125.00
             422.97,105.76 411.72,88.61 394.00,80.87
             385.59,77.20 374.15,76.01 365.00,76.00
             365.00,76.00 256.00,76.00 256.00,76.00
             256.00,76.00 241.00,77.00 241.00,77.00
             241.00,77.00 124.00,77.00 124.00,77.00
             97.43,77.04 76.04,98.43 76.00,125.00
             76.00,125.00 76.00,378.00 76.00,378.00
             76.03,397.24 87.28,414.39 105.00,422.13
             113.41,425.80 124.85,426.99 134.00,427.00
             134.00,427.00 256.00,427.00 256.00,427.00
             258.45,427.00 261.72,426.87 264.00,427.74
             267.00,428.88 281.72,442.82 285.00,446.01
             285.00,446.01 303.00,463.96 303.00,463.96
             303.00,463.96 314.00,474.00 314.00,474.00
             322.32,482.23 330.37,491.31 340.00,498.00 Z
           M 249.00,101.14
           C 249.00,101.14 277.00,101.14 277.00,101.14
             277.00,101.14 326.00,101.14 326.00,101.14
             338.99,101.00 362.32,99.88 374.00,103.75
             389.50,108.88 397.98,123.32 398.00,139.00
             398.00,139.00 398.00,237.00 398.00,237.00
             398.00,237.00 398.00,364.00 398.00,364.00
             397.97,385.78 382.78,400.97 361.00,401.00
             361.00,401.00 259.00,401.00 259.00,401.00
             259.00,401.00 242.00,402.00 242.00,402.00
             242.00,402.00 146.00,402.00 146.00,402.00
             139.50,401.99 128.96,400.96 123.00,398.53
             108.64,392.66 101.02,378.93 101.00,364.00
             101.00,364.00 101.00,218.00 101.00,218.00
             101.00,218.00 101.00,137.00 101.00,137.00
             101.25,116.17 117.74,102.03 138.00,102.00
             138.00,102.00 210.00,102.00 210.00,102.00
             210.00,102.00 249.00,101.14 249.00,101.14 Z
           M 251.00,126.09
           C 251.00,126.09 217.00,127.00 217.00,127.00
             217.00,127.00 157.00,127.00 157.00,127.00
             152.48,127.00 136.20,126.50 133.00,127.74
             130.18,128.83 127.83,131.18 126.74,134.00
             125.87,136.25 126.00,139.57 126.00,142.00
             126.00,142.00 126.00,322.00 126.00,322.00
             126.00,322.00 126.00,361.00 126.00,361.00
             126.01,365.05 125.68,368.53 128.43,371.89
             132.55,376.94 140.02,376.99 146.00,377.00
             146.00,377.00 243.00,377.00 243.00,377.00
             243.00,377.00 258.00,376.00 258.00,376.00
             258.00,376.00 320.00,376.00 320.00,376.00
             320.00,376.00 353.00,376.00 353.00,376.00
             357.38,376.00 364.29,376.68 367.96,374.26
             373.12,370.86 372.99,366.48 373.00,361.00
             373.00,361.00 373.00,181.00 373.00,181.00
             373.00,181.00 373.00,142.00 373.00,142.00
             372.99,137.95 373.32,134.47 370.57,131.11
             366.45,126.06 358.98,126.01 353.00,126.09
             353.00,126.09 287.00,126.09 287.00,126.09
             287.00,126.09 251.00,126.09 251.00,126.09 Z
           M 280.00,265.00
           C 277.37,272.54 274.26,279.32 267.00,283.47
             261.84,286.42 255.84,287.12 250.00,286.99
             233.11,286.60 221.20,273.66 221.00,257.00
             220.86,244.39 221.08,233.16 232.01,224.53
             246.77,212.87 274.89,216.11 279.00,238.00
             279.00,238.00 266.00,241.00 266.00,241.00
             264.73,238.62 263.64,236.29 261.66,234.39
             254.24,227.22 243.30,229.67 237.99,238.01
             234.10,244.14 234.01,257.31 236.56,264.00
             240.01,273.02 250.44,278.28 258.96,272.30
             262.89,269.54 264.73,265.45 266.00,261.00
             266.00,261.00 280.00,265.00 280.00,265.00 Z
           M 144.00,219.00
           C 144.00,219.00 158.00,219.00 158.00,219.00
             164.95,219.13 164.92,220.32 167.63,231.00
             167.63,231.00 177.00,264.00 177.00,264.00
             177.00,264.00 185.29,232.00 185.29,232.00
             185.29,232.00 189.56,220.02 189.56,220.02
             189.56,220.02 209.00,219.00 209.00,219.00
             209.00,219.00 209.00,287.00 209.00,287.00
             209.00,287.00 197.00,287.00 197.00,287.00
             197.00,287.00 197.00,254.00 197.00,254.00
             197.00,254.00 196.00,235.00 196.00,235.00
             196.00,235.00 186.37,275.00 186.37,275.00
             184.65,281.88 185.19,286.68 178.00,286.98
             168.46,287.38 169.56,285.76 166.37,273.00
             164.04,263.67 159.75,243.73 156.00,236.00
             156.00,236.00 156.00,287.00 156.00,287.00
             156.00,287.00 144.00,287.00 144.00,287.00
             144.00,287.00 144.00,219.00 144.00,219.00 Z
           M 292.00,219.00
           C 292.00,219.00 306.00,219.00 306.00,219.00
             312.95,219.13 312.92,220.32 315.63,231.00
             315.63,231.00 325.00,264.00 325.00,264.00
             325.00,264.00 333.29,232.00 333.29,232.00
             333.29,232.00 337.56,220.02 337.56,220.02
             337.56,220.02 357.00,219.00 357.00,219.00
             357.00,219.00 357.00,287.00 357.00,287.00
             357.00,287.00 345.00,287.00 345.00,287.00
             345.00,287.00 345.00,254.00 345.00,254.00
             345.00,254.00 344.00,235.00 344.00,235.00
             344.00,235.00 334.37,275.00 334.37,275.00
             332.65,281.88 333.19,286.68 326.00,286.98
             316.46,287.38 317.56,285.76 314.37,273.00
             312.04,263.67 307.75,243.73 304.00,236.00
             304.00,236.00 304.00,287.00 304.00,287.00
             304.00,287.00 292.00,287.00 292.00,287.00
             292.00,287.00 292.00,219.00 292.00,219.00 Z" />
</svg>
